<svg width="19" height="32" viewBox="0 0 19 32" fill="none" xmlns="http://www.w3.org/2000/svg">
<path d="M10.9615 5.95349C12.5692 5.95349 13.8846 4.61395 13.8846 2.97674C13.8846 1.33953 12.5692 0 10.9615 0C9.35385 0 8.03846 1.33953 8.03846 2.97674C8.03846 4.61395 9.35385 5.95349 10.9615 5.95349ZM11.6923 32C12.4962 32 13.1538 31.3302 13.1538 30.5116V22.1172C13.1538 21.2986 12.8323 20.5247 12.2477 19.9591L10.0846 17.8605L10.9615 13.3953C12.5254 15.2409 14.7908 16.5656 17.3338 16.9823C18.2108 17.1312 19 16.4167 19 15.5088C19 14.7795 18.4885 14.1544 17.7869 14.0502C15.5508 13.693 13.7092 12.3535 12.7154 10.5823L11.2538 8.20093C10.4354 6.87628 8.79846 6.34047 7.36615 6.9507L1.78308 9.34698C0.701538 9.82326 0 10.8949 0 12.0856V15.6279C0 16.4465 0.657692 17.1163 1.46154 17.1163C2.26538 17.1163 2.92308 16.4465 2.92308 15.6279V12.0558L5.55385 11.014L1.82692 30.1544C1.63692 31.107 2.35308 32 3.31769 32C4.03385 32 4.64769 31.494 4.80846 30.7944L7.16154 20.093L10.2308 23.0698V30.5116C10.2308 31.3302 10.8885 32 11.6923 32Z" fill="#F2F2F2"/>
</svg>
