<svg width="11" height="19" viewBox="0 0 11 19" fill="none" xmlns="http://www.w3.org/2000/svg">
<path d="M0.296407 18.7026C0.107722 18.5043 0.00909119 18.2729 0.000514596 18.0085C-0.008062 17.7441 0.0905688 17.5128 0.296407 17.3145L8.40129 9.50644L0.296407 1.69843C0.107722 1.51666 0.00909119 1.28944 0.000514596 1.01678C-0.008062 0.744116 0.0905688 0.508636 0.296407 0.310338C0.485092 0.112039 0.720949 0.0087582 1.00398 0.000495746C1.287 -0.0077667 1.53144 0.0872516 1.73728 0.28555L10.7684 8.98591C10.8542 9.06853 10.9142 9.15116 10.9485 9.23378C10.9828 9.31641 11 9.4073 11 9.50644C11 9.60559 10.9828 9.69648 10.9485 9.77911C10.9142 9.86173 10.8542 9.94436 10.7684 10.027L1.73728 18.7273C1.54859 18.9091 1.31273 19 1.02971 19C0.746679 19 0.502245 18.9009 0.296407 18.7026Z" fill="#E8E8E8"/>
</svg>
