<svg width="45" height="39" viewBox="0 0 45 39" fill="none" xmlns="http://www.w3.org/2000/svg">
<path d="M3 39C2.2 39 1.5 38.7 0.9 38.1C0.3 37.5 0 36.8 0 36V10.35C0 9.58333 0.3 8.89167 0.9 8.275C1.5 7.65833 2.2 7.35 3 7.35H10.35L13.1 4.05C13.3667 3.68333 13.7 3.41667 14.1 3.25C14.5 3.08333 14.9333 3 15.4 3H26.5C26.9333 3 27.2917 3.14167 27.575 3.425C27.8583 3.70833 28 4.06667 28 4.5V8.85C28 9.28333 28.1417 9.64167 28.425 9.925C28.7083 10.2083 29.0667 10.35 29.5 10.35H34V14.85C34 15.2833 34.1417 15.6417 34.425 15.925C34.7083 16.2083 35.0667 16.35 35.5 16.35H38.5C38.9333 16.35 39.2917 16.4917 39.575 16.775C39.8583 17.0583 40 17.4167 40 17.85V36C40 36.8 39.6917 37.5 39.075 38.1C38.4583 38.7 37.7667 39 37 39H3ZM20 31.7C22.4 31.7 24.4167 30.8833 26.05 29.25C27.6833 27.6167 28.5 25.5833 28.5 23.15C28.5 20.75 27.6833 18.7417 26.05 17.125C24.4167 15.5083 22.4 14.7 20 14.7C17.5667 14.7 15.5417 15.5083 13.925 17.125C12.3083 18.7417 11.5 20.75 11.5 23.15C11.5 25.5833 12.3083 27.6167 13.925 29.25C15.5417 30.8833 17.5667 31.7 20 31.7ZM37 7.35H34.2C33.8 7.35 33.45 7.20833 33.15 6.925C32.85 6.64167 32.7 6.28333 32.7 5.85C32.7 5.41667 32.8417 5.05833 33.125 4.775C33.4083 4.49167 33.7667 4.35 34.2 4.35H37V1.5C37 1.06667 37.1417 0.708333 37.425 0.425C37.7083 0.141666 38.0667 0 38.5 0C38.9333 0 39.2917 0.141666 39.575 0.425C39.8583 0.708333 40 1.06667 40 1.5V4.35H42.85C43.2833 4.35 43.6417 4.49167 43.925 4.775C44.2083 5.05833 44.35 5.41667 44.35 5.85C44.35 6.28333 44.2083 6.64167 43.925 6.925C43.6417 7.20833 43.2833 7.35 42.85 7.35H40V10.15C40 10.55 39.8583 10.9 39.575 11.2C39.2917 11.5 38.9333 11.65 38.5 11.65C38.0667 11.65 37.7083 11.5083 37.425 11.225C37.1417 10.9417 37 10.5833 37 10.15V7.35Z" fill="#38CBA6"/>
</svg>
