<svg width="48" height="48" viewBox="0 0 48 48" fill="none" xmlns="http://www.w3.org/2000/svg">
<ellipse cx="24.0001" cy="24.6857" rx="21.2571" ry="20.5714" fill="#272022"/>
<path d="M13.38 35.82L27.84 28.74C28.04 28.66 28.21 28.55 28.35 28.41C28.49 28.27 28.6 28.1 28.68 27.9L35.76 13.44C35.96 13.04 35.91 12.69 35.61 12.39C35.31 12.09 34.96 12.04 34.56 12.24L20.1 19.32C19.9 19.4 19.73 19.51 19.59 19.65C19.45 19.79 19.34 19.96 19.26 20.16L12.18 34.62C11.98 35.02 12.03 35.37 12.33 35.67C12.63 35.97 12.98 36.02 13.38 35.82ZM24 26.4C23.32 26.4 22.75 26.17 22.29 25.71C21.83 25.25 21.6 24.68 21.6 24C21.6 23.32 21.83 22.75 22.29 22.29C22.75 21.83 23.32 21.6 24 21.6C24.68 21.6 25.25 21.83 25.71 22.29C26.17 22.75 26.4 23.32 26.4 24C26.4 24.68 26.17 25.25 25.71 25.71C25.25 26.17 24.68 26.4 24 26.4ZM24 48C20.72 48 17.62 47.37 14.7 46.11C11.78 44.85 9.23 43.13 7.05 40.95C4.87 38.77 3.15 36.22 1.89 33.3C0.63 30.38 0 27.28 0 24C0 20.72 0.63 17.62 1.89 14.7C3.15 11.78 4.87 9.23 7.05 7.05C9.23 4.87 11.78 3.15 14.7 1.89C17.62 0.63 20.72 0 24 0C27.28 0 30.38 0.63 33.3 1.89C36.22 3.15 38.77 4.87 40.95 7.05C43.13 9.23 44.85 11.78 46.11 14.7C47.37 17.62 48 20.72 48 24C48 27.28 47.37 30.38 46.11 33.3C44.85 36.22 43.13 38.77 40.95 40.95C38.77 43.13 36.22 44.85 33.3 46.11C30.38 47.37 27.28 48 24 48Z" fill="#F18EB0"/>
</svg>
