<svg width="23" height="23" viewBox="0 0 23 23" fill="none" xmlns="http://www.w3.org/2000/svg">
<rect x="2.09082" y="2.09082" width="13.5909" height="8.36364" fill="#060606"/>
<path d="M14.95 2.3V10.35H3.6455L2.3 11.6955V2.3H14.95ZM16.1 0H1.15C0.5175 0 0 0.5175 0 1.15V17.25L4.6 12.65H16.1C16.7325 12.65 17.25 12.1325 17.25 11.5V1.15C17.25 0.5175 16.7325 0 16.1 0ZM21.85 4.6H19.55V14.95H4.6V17.25C4.6 17.8825 5.1175 18.4 5.75 18.4H18.4L23 23V5.75C23 5.1175 22.4825 4.6 21.85 4.6Z" fill="#060606"/>
<rect x="2.09082" y="9.40918" width="2.09091" height="3.13636" fill="#060606"/>
</svg>
